<svg class="animated" id="freepik_stories-images" xmlns="http://www.w3.org/2000/svg" viewBox="0 0 500 500" version="1.1" xmlns:xlink="http://www.w3.org/1999/xlink" xmlns:svgjs="http://svgjs.com/svgjs"><style>svg#freepik_stories-images:not(.animated) .animable {opacity: 0;}svg#freepik_stories-images.animated #freepik--background-complete--inject-2 {animation: 1s 1 forwards cubic-bezier(.36,-0.01,.5,1.38) slideLeft;animation-delay: 0s;}svg#freepik_stories-images.animated #freepik--Shadow--inject-2 {animation: 1s 1 forwards cubic-bezier(.36,-0.01,.5,1.38) fadeIn;animation-delay: 0s;}svg#freepik_stories-images.animated #freepik--Images--inject-2 {animation: 1s 1 forwards cubic-bezier(.36,-0.01,.5,1.38) slideRight;animation-delay: 0s;}svg#freepik_stories-images.animated #freepik--Character--inject-2 {animation: 1s 1 forwards cubic-bezier(.36,-0.01,.5,1.38) lightSpeedRight;animation-delay: 0s;}            @keyframes slideLeft {                0% {                    opacity: 0;                    transform: translateX(-30px);                }                100% {                    opacity: 1;                    transform: translateX(0);                }            }                    @keyframes fadeIn {                0% {                    opacity: 0;                }                100% {                    opacity: 1;                }            }                    @keyframes slideRight {                0% {                    opacity: 0;                    transform: translateX(30px);                }                100% {                    opacity: 1;                    transform: translateX(0);                }            }                    @keyframes lightSpeedRight {              from {                transform: translate3d(50%, 0, 0) skewX(-20deg);                opacity: 0;              }              60% {                transform: skewX(10deg);                opacity: 1;              }              80% {                transform: skewX(-2deg);              }              to {                opacity: 1;                transform: translate3d(0, 0, 0);              }            }        </style><g id="freepik--background-complete--inject-2" style="transform-origin: 250px 225.125px 0px;" class="animable"><g id="freepik--background-complete--inject-2" style="transform-origin: 250px 225.125px 0px;" class="animable"><rect y="382.4" width="500" height="0.25" style="fill: rgb(235, 235, 235); transform-origin: 250px 382.525px 0px;" id="el49uhbiakty8" class="animable"></rect><rect x="142.02" y="388.44" width="10.48" height="0.25" style="fill: rgb(235, 235, 235); transform-origin: 147.26px 388.565px 0px;" id="eljd7aufgtqid" class="animable"></rect><rect x="448.33" y="395" width="17.85" height="0.25" style="fill: rgb(235, 235, 235); transform-origin: 457.255px 395.125px 0px;" id="el88fvakdbco6" class="animable"></rect><rect x="322.74" y="388.56" width="59.15" height="0.25" style="fill: rgb(235, 235, 235); transform-origin: 352.315px 388.685px 0px;" id="elkbrxll30lsl" class="animable"></rect><rect x="188.64" y="394.26" width="45.25" height="0.25" style="fill: rgb(235, 235, 235); transform-origin: 211.265px 394.385px 0px;" id="elb8clw4jtz3" class="animable"></rect><rect x="124" y="392.68" width="15.68" height="0.25" style="fill: rgb(235, 235, 235); transform-origin: 131.84px 392.805px 0px;" id="elirmsofoocf" class="animable"></rect><rect x="403.78" y="394.26" width="22.56" height="0.25" style="fill: rgb(235, 235, 235); transform-origin: 415.06px 394.385px 0px;" id="elxex6akcfw8" class="animable"></rect><rect x="64.93" y="392.56" width="53.24" height="0.25" style="fill: rgb(235, 235, 235); transform-origin: 91.55px 392.685px 0px;" id="eltzcbxet1gle" class="animable"></rect><path d="M237,337.8H43.91a5.71,5.71,0,0,1-5.7-5.71V60.66A5.71,5.71,0,0,1,43.91,55H237a5.71,5.71,0,0,1,5.71,5.71h0V332.09A5.71,5.71,0,0,1,237,337.8ZM43.91,55.2a5.46,5.46,0,0,0-5.45,5.46V332.09a5.46,5.46,0,0,0,5.45,5.46H237a5.48,5.48,0,0,0,5.46-5.46V60.66A5.48,5.48,0,0,0,237,55.2Z" style="fill: rgb(235, 235, 235); transform-origin: 140.46px 196.4px 0px;" id="el5g0jimn1voo" class="animable"></path><path d="M453.31,337.8H260.21a5.73,5.73,0,0,1-5.71-5.71V60.66A5.72,5.72,0,0,1,260.21,55h193.1A5.71,5.71,0,0,1,459,60.66V332.09A5.7,5.7,0,0,1,453.31,337.8ZM260.21,55.2a5.48,5.48,0,0,0-5.46,5.46V332.09a5.48,5.48,0,0,0,5.46,5.46h193.1a5.48,5.48,0,0,0,5.46-5.46V60.66a5.48,5.48,0,0,0-5.46-5.46Z" style="fill: rgb(235, 235, 235); transform-origin: 356.75px 196.4px 0px;" id="el71ml9ff4jt7" class="animable"></path><rect x="77.55" y="84.63" width="126.24" height="188.94" style="fill: rgb(230, 230, 230); transform-origin: 140.67px 179.1px 0px;" id="el0vtdr8n656a" class="animable"></rect><rect x="74.75" y="84.63" width="126.24" height="188.94" style="fill: rgb(245, 245, 245); transform-origin: 137.87px 179.1px 0px;" id="el4bbee31lrci" class="animable"></rect><rect x="79.78" y="90.29" width="116.17" height="177.63" style="fill: rgb(255, 255, 255); transform-origin: 137.865px 179.105px 0px;" id="elu4relimocr" class="animable"></rect><rect x="79.79" y="90.28" width="2.12" height="177.63" style="fill: rgb(230, 230, 230); transform-origin: 80.85px 179.095px 0px;" id="elhiv67gbgkr5" class="animable"></rect><rect x="76.83" y="212.8" width="122.07" height="7.59" style="fill: rgb(245, 245, 245); transform-origin: 137.865px 216.595px 0px;" id="elsv0mr4f3qqf" class="animable"></rect><g id="el2h1hlh9qhsk"><rect x="69.51" y="76.05" width="129.4" height="38.86" style="fill: rgb(240, 240, 240); opacity: 0.4; isolation: isolate; transform-origin: 134.21px 95.48px 0px;" class="animable"></rect></g><path d="M69.26,75.27h140A.78.78,0,0,1,210,76h0a.78.78,0,0,1-.78.78h-140a.78.78,0,0,1-.77-.78h0A.79.79,0,0,1,69.26,75.27Z" style="fill: rgb(230, 230, 230); transform-origin: 139.225px 76.0248px 0px;" id="el6qlhadyu4sm" class="animable"></path><path d="M64.61,76a3.88,3.88,0,1,0,3.89-3.87h0A3.88,3.88,0,0,0,64.61,76Z" style="fill: rgb(230, 230, 230); transform-origin: 68.49px 76.01px 0px;" id="el9zd0ynwhibe" class="animable"></path><path d="M202.75,80.38h0a1.05,1.05,0,0,0,1.05-1V77.09a1.05,1.05,0,0,0-1.05-1h0a1,1,0,0,0-1.05,1v2.3a1,1,0,0,0,1,1Z" style="fill: rgb(230, 230, 230); transform-origin: 202.75px 78.2394px 0px;" id="elick2zuz38yd" class="animable"></path><path d="M81,80.38h0a1,1,0,0,0,1-1V77.09a1,1,0,0,0-1-1h0a1,1,0,0,0-1,1v2.25a1,1,0,0,0,1,1Z" style="fill: rgb(230, 230, 230); transform-origin: 81px 78.235px 0px;" id="eltufl0udedi" class="animable"></path><path d="M186.41,76a3.88,3.88,0,1,0,3.89-3.87h0A3.88,3.88,0,0,0,186.41,76Z" style="fill: rgb(230, 230, 230); transform-origin: 190.29px 76.01px 0px;" id="elju0t7j7umnn" class="animable"></path><rect x="392.71" y="296.3" width="36.52" height="80.96" style="fill: rgb(230, 230, 230); transform-origin: 410.97px 336.78px 0px;" id="el955jqvffh5" class="animable"></rect><rect x="242.14" y="377.27" width="180.08" height="5.13" style="fill: rgb(230, 230, 230); transform-origin: 332.18px 379.835px 0px;" id="el6vujejzh5ot" class="animable"></rect><rect x="235.12" y="296.31" width="157.59" height="80.96" style="fill: rgb(245, 245, 245); transform-origin: 313.915px 336.79px 0px;" id="elzrfzvabc6gk" class="animable"></rect><rect x="249.48" y="306.27" width="128.88" height="26.55" style="fill: rgb(230, 230, 230); transform-origin: 313.92px 319.545px 0px;" id="el7pze79pevlp" class="animable"></rect><rect x="249.48" y="340.75" width="128.88" height="26.55" style="fill: rgb(230, 230, 230); transform-origin: 313.92px 354.025px 0px;" id="el3e3k505mu9s" class="animable"></rect><rect x="295.88" y="317.73" width="36.06" height="3.64" rx="1.61" style="fill: rgb(245, 245, 245); transform-origin: 313.91px 319.55px 0px;" id="eloi3a83li7r" class="animable"></rect><rect x="295.88" y="352.2" width="36.06" height="3.64" rx="1.61" style="fill: rgb(245, 245, 245); transform-origin: 313.91px 354.02px 0px;" id="elwbxiyqr3jdm" class="animable"></rect><circle cx="349.17" cy="276.61" r="8.08" style="fill: rgb(245, 245, 245); transform-origin: 349.17px 276.61px 0px;" id="ely6bf3m1o6mb" class="animable"></circle><circle cx="334.59" cy="274.81" r="8.05" style="fill: rgb(245, 245, 245); transform-origin: 334.59px 274.81px 0px;" id="elw21cco1hxpa" class="animable"></circle><circle cx="295.67" cy="278.53" r="8.05" style="fill: rgb(245, 245, 245); transform-origin: 295.67px 278.53px 0px;" id="elianinz1nag" class="animable"></circle><circle cx="316.42" cy="282.25" r="8.05" style="fill: rgb(245, 245, 245); transform-origin: 316.42px 282.25px 0px;" id="elb2da0az40qj" class="animable"></circle><path d="M370.63,277.79s-1.3,18.52-51.26,18.52-51.26-18.52-51.26-18.52Z" style="fill: rgb(230, 230, 230); transform-origin: 319.37px 287.05px 0px;" id="ela04ca7gk0qa" class="animable"></path><rect x="182.27" y="298.33" width="18.23" height="79.06" style="fill: rgb(230, 230, 230); transform-origin: 191.385px 337.86px 0px;" id="elhkek5v8m4n" class="animable"></rect><rect x="78.75" y="377.39" width="118.24" height="5.01" style="fill: rgb(230, 230, 230); transform-origin: 137.87px 379.895px 0px;" id="elvtgw0ored8" class="animable"></rect><rect x="75.25" y="298.33" width="107.01" height="79.06" style="fill: rgb(245, 245, 245); transform-origin: 128.755px 337.86px 0px;" id="elmvwqtnftiuc" class="animable"></rect><rect x="82.42" y="308.06" width="92.68" height="25.93" style="fill: rgb(230, 230, 230); transform-origin: 128.76px 321.025px 0px;" id="elylh562jxjve" class="animable"></rect><rect x="82.42" y="341.73" width="92.68" height="25.93" style="fill: rgb(230, 230, 230); transform-origin: 128.76px 354.695px 0px;" id="elwuodi4niop" class="animable"></rect><path d="M114.72,311.23h28.07a3.48,3.48,0,0,0,3.46-3.45h0a3.47,3.47,0,0,0-3.46-3.46H114.72a3.48,3.48,0,0,0-3.45,3.46h0A3.47,3.47,0,0,0,114.72,311.23Z" style="fill: rgb(245, 245, 245); transform-origin: 128.76px 307.775px 0px;" id="el01bv1tg9vz0b" class="animable"></path><path d="M114.72,344.9h28.07a3.47,3.47,0,0,0,3.46-3.46h0a3.48,3.48,0,0,0-3.46-3.45H114.72a3.47,3.47,0,0,0-3.45,3.45h0A3.48,3.48,0,0,0,114.72,344.9Z" style="fill: rgb(245, 245, 245); transform-origin: 128.76px 341.445px 0px;" id="elbuesdlsyr07" class="animable"></path><rect x="279.65" y="102.04" width="52.34" height="106.54" style="fill: rgb(235, 235, 235); transform-origin: 305.82px 155.31px 0px;" id="elwy6wfhry1lj" class="animable"></rect><rect x="275.45" y="102.04" width="55.41" height="106.54" style="fill: rgb(245, 245, 245); transform-origin: 303.155px 155.31px 0px;" id="elvboypr092jn" class="animable"></rect><rect x="283.5" y="110.1" width="39.29" height="90.42" style="fill: rgb(255, 255, 255); transform-origin: 303.145px 155.31px 0px;" id="el8ykg0m6mo4f" class="animable"></rect><rect x="401.42" y="158.73" width="28.66" height="33.02" style="fill: rgb(235, 235, 235); transform-origin: 415.75px 175.24px 0px;" id="el79fy8b73rbf" class="animable"></rect><rect x="395.62" y="158.73" width="31.06" height="33.02" style="fill: rgb(245, 245, 245); transform-origin: 411.15px 175.24px 0px;" id="el05o0n9zygtqr" class="animable"></rect><rect x="398.23" y="161.34" width="25.85" height="27.81" style="fill: rgb(255, 255, 255); transform-origin: 411.155px 175.245px 0px;" id="elfwxel9o36pd" class="animable"></rect><rect x="404.49" y="168.08" width="13.32" height="14.33" rx="2.28" style="fill: rgb(240, 240, 240); transform-origin: 411.15px 175.245px 0px;" id="elqw7yv2qcx6" class="animable"></rect><rect x="378.32" y="112.79" width="28.66" height="33.02" style="fill: rgb(235, 235, 235); transform-origin: 392.65px 129.3px 0px;" id="elopef4dngxcc" class="animable"></rect><rect x="372.53" y="112.79" width="31.06" height="33.02" style="fill: rgb(245, 245, 245); transform-origin: 388.06px 129.3px 0px;" id="elvmupsfft8jc" class="animable"></rect><rect x="375.14" y="115.39" width="25.85" height="27.81" style="fill: rgb(255, 255, 255); transform-origin: 388.065px 129.295px 0px;" id="eln848tysnnfc" class="animable"></rect><rect x="381.4" y="122.13" width="13.32" height="14.33" rx="2.28" style="fill: rgb(240, 240, 240); transform-origin: 388.06px 129.295px 0px;" id="el8gica66jyz3" class="animable"></rect></g></g><g id="freepik--Shadow--inject-2" style="transform-origin: 250px 416.24px 0px;" class="animable"><g id="freepik--shadow--inject-2" style="transform-origin: 250px 416.24px 0px;" class="animable"><ellipse cx="250" cy="416.24" rx="193.89" ry="11.32" style="fill: rgb(245, 245, 245); transform-origin: 250px 416.24px 0px;" id="elsqaus53y5kc" class="animable"></ellipse></g></g><g id="freepik--Images--inject-2" style="transform-origin: 232.946px 248.662px 0px;" class="animable"><g id="freepik--photo-3--inject-2" style="transform-origin: 217.625px 232.075px 0px;" class="animable"><rect x="109.67" y="126.37" width="215.91" height="211.41" style="fill: rgb(22, 135, 167); transform-origin: 217.625px 232.075px 0px;" id="elfffbk18i2ja" class="animable"></rect><g id="ely3s7hfeotc"><rect x="109.67" y="126.37" width="215.91" height="211.41" style="opacity: 0.7; isolation: isolate; transform-origin: 217.625px 232.075px 0px;" class="animable"></rect></g><rect x="115.23" y="133.13" width="204.81" height="204.65" style="fill: rgb(255, 255, 255); transform-origin: 217.635px 235.455px 0px;" id="el51c3gjldde7" class="animable"></rect><polygon points="325.58 334.8 325.58 337.78 216.77 337.78 240.29 314.28 272.67 281.88 325.58 334.8" style="fill: rgb(22, 135, 167); transform-origin: 271.175px 309.83px 0px;" id="el7797ubia5u3" class="animable"></polygon><g id="el45wwb0yog2b"><polygon points="325.58 334.8 325.58 337.78 216.77 337.78 240.29 314.28 272.67 281.88 325.58 334.8" style="opacity: 0.7; isolation: isolate; transform-origin: 271.175px 309.83px 0px;" class="animable"></polygon></g><polygon points="109.67 337.78 109.67 317.46 176.57 250.56 263.79 337.78 109.67 337.78" style="fill: rgb(22, 135, 167); transform-origin: 186.73px 294.17px 0px;" id="elk8cme8haqqj" class="animable"></polygon><g id="elkqafx850trk"><polygon points="109.67 337.78 109.67 317.46 176.57 250.56 263.79 337.78 109.67 337.78" style="opacity: 0.7; isolation: isolate; transform-origin: 186.73px 294.17px 0px;" class="animable"></polygon></g><g id="eldqrgg7myx9k"><circle cx="253.23" cy="194.22" r="33.06" style="fill: rgb(22, 135, 167); transform-origin: 253.23px 194.22px 0px; transform: rotate(-80.78deg);" class="animable"></circle></g><g id="el1zjtw8ru72v"><circle cx="253.23" cy="194.22" r="33.06" style="opacity: 0.7; isolation: isolate; transform-origin: 253.23px 194.22px 0px; transform: rotate(-80.78deg);" class="animable"></circle></g></g><g id="freepik--photo-2--inject-2" style="transform-origin: 270.865px 237.88px 0px;" class="animable"><g id="eldd0f1c3ptd6"><rect x="165.16" y="129.96" width="211.41" height="215.91" style="fill: rgb(22, 135, 167); transform-origin: 270.865px 237.915px 0px; transform: rotate(-84.42deg);" class="animable"></rect></g><g id="el1od437r7rac"><rect x="165.16" y="129.89" width="211.41" height="215.91" style="opacity: 0.1; isolation: isolate; transform-origin: 270.865px 237.845px 0px; transform: rotate(-84.42deg);" class="animable"></rect></g><g id="el2qhjismuxmw"><rect x="168.22" y="138.87" width="204.65" height="204.81" style="fill: rgb(255, 255, 255); transform-origin: 270.545px 241.275px 0px; transform: rotate(-84.42deg);" class="animable"></rect></g><g id="elrb3hixwm4go"><rect x="367.64" y="134.6" width="1" height="7.18" style="fill: rgb(22, 135, 167); transform-origin: 368.14px 138.19px 0px; transform: rotate(-84.42deg);" class="animable"></rect></g><g id="elwddnzdo6myk"><rect x="350.09" y="126.2" width="1" height="17.66" style="fill: rgb(22, 135, 167); transform-origin: 350.59px 135.03px 0px; transform: rotate(-84.29deg);" class="animable"></rect></g><g id="elnoe30otf59"><rect x="367.64" y="134.6" width="1" height="7.18" style="opacity: 0.1; isolation: isolate; transform-origin: 368.14px 138.19px 0px; transform: rotate(-84.42deg);" class="animable"></rect></g><g id="el72il5w6fb7"><rect x="350.09" y="126.2" width="1" height="17.66" style="opacity: 0.1; isolation: isolate; transform-origin: 350.59px 135.03px 0px; transform: rotate(-84.29deg);" class="animable"></rect></g><g id="elvq7nkg3m1ji"><polygon points="368.31 350.63 368.02 353.6 259.73 343.02 285.42 321.92 320.8 292.82 368.31 350.63" style="opacity: 0.1; isolation: isolate; transform-origin: 314.02px 323.21px 0px;" class="animable"></polygon></g><polygon points="368.31 350.63 368.02 353.6 259.73 343.02 285.42 321.92 320.8 292.82 368.31 350.63" style="fill: rgb(22, 135, 167); transform-origin: 314.02px 323.21px 0px;" id="ela6r7sy394g7" class="animable"></polygon><g id="el3c90rc91noi"><polygon points="368.31 350.63 368.02 353.6 259.73 343.02 285.42 321.92 320.8 292.82 368.31 350.63" style="opacity: 0.1; isolation: isolate; transform-origin: 314.02px 323.21px 0px;" class="animable"></polygon></g><g id="elck6mmqpblbg"><circle cx="309.98" cy="203.7" r="33.06" style="opacity: 0.1; isolation: isolate; transform-origin: 309.98px 203.7px 0px;" class="animable"></circle></g><circle cx="309.98" cy="203.7" r="33.06" style="fill: rgb(22, 135, 167); transform-origin: 309.98px 203.7px 0px;" id="el7iw6ej3dpqx" class="animable"></circle><g id="eleompg3tzu08"><circle cx="309.98" cy="203.7" r="33.06" style="opacity: 0.1; isolation: isolate; transform-origin: 309.98px 203.7px 0px;" class="animable"></circle></g></g><g id="freepik--photo-1--inject-2" style="transform-origin: 191.925px 262.657px 0px;" class="animable"><g id="el41y4n3z0mau"><rect x="83.97" y="156.95" width="215.91" height="211.41" style="fill: rgb(22, 135, 167); transform-origin: 191.925px 262.655px 0px; transform: rotate(-3.74deg);" class="animable"></rect></g><g id="eltc971erjfu"><rect x="89.74" y="163.7" width="204.81" height="204.65" style="fill: rgb(255, 255, 255); transform-origin: 192.145px 266.025px 0px; transform: rotate(-3.74deg);" class="animable"></rect></g><g id="el667mg4ar56c"><rect x="83.97" y="156.95" width="215.91" height="211.41" style="fill: rgb(255, 255, 255); opacity: 0.5; isolation: isolate; transform-origin: 191.925px 262.655px 0px; transform: rotate(-3.74deg);" class="animable"></rect></g><polygon points="306.33 358.14 306.52 361.11 197.95 368.2 219.88 343.22 250.08 308.78 306.33 358.14" style="fill: rgb(22, 135, 167); transform-origin: 252.235px 338.49px 0px;" id="elrpcio1xjxj8" class="animable"></polygon><g id="elg7l762gp2ut"><polygon points="306.33 358.14 306.52 361.11 197.95 368.2 219.88 343.22 250.08 308.78 306.33 358.14" style="fill: rgb(255, 255, 255); opacity: 0.5; isolation: isolate; transform-origin: 252.235px 338.49px 0px;" class="animable"></polygon></g><polygon points="91.07 375.18 89.75 354.91 152.15 283.79 244.86 365.14 91.07 375.18" style="fill: rgb(22, 135, 167); transform-origin: 167.305px 329.485px 0px;" id="elrewwo7l121" class="animable"></polygon><g id="el7keqika7v1g"><polygon points="91.07 375.18 89.75 354.91 152.15 283.79 244.86 365.14 91.07 375.18" style="fill: rgb(255, 255, 255); opacity: 0.5; isolation: isolate; transform-origin: 167.305px 329.485px 0px;" class="animable"></polygon></g><circle cx="224.98" cy="222.58" r="33.06" style="fill: rgb(22, 135, 167); transform-origin: 224.98px 222.58px 0px;" id="elu2qh39upzii" class="animable"></circle><g id="eljxgabzjsun"><circle cx="224.98" cy="222.58" r="33.06" style="fill: rgb(255, 255, 255); opacity: 0.5; isolation: isolate; transform-origin: 224.98px 222.58px 0px;" class="animable"></circle></g></g></g><g id="freepik--Character--inject-2" style="transform-origin: 346.895px 281.835px 0px;" class="animable"><g id="freepik--character--inject-2" style="transform-origin: 346.895px 281.835px 0px;" class="animable"><path d="M390.63,200.92c.71,1.31,1.3,2.47,1.88,3.73s1.15,2.47,1.7,3.72c1.07,2.5,2.07,5,3,7.65a79.48,79.48,0,0,1,2.32,8l.47,2.06.38,2.09c.14.7.22,1.42.32,2.13l.14,1.08v.71a8.34,8.34,0,0,1,0,1,15.07,15.07,0,0,1-1.3,5.53,34.51,34.51,0,0,1-2.08,4.06,63,63,0,0,1-4.83,6.85,103.72,103.72,0,0,1-11.09,11.77l-4.08-3.66c2.91-4.2,5.8-8.54,8.4-12.84a71.76,71.76,0,0,0,3.49-6.46,23.87,23.87,0,0,0,1.21-3.07,5.86,5.86,0,0,0,.36-2.11h0v-.22l-.19-.86c-.12-.58-.23-1.15-.4-1.73l-.46-1.74-.51-1.75c-.73-2.33-1.54-4.66-2.45-7s-1.87-4.63-2.88-6.92-2.12-4.63-3.14-6.74Z" style="fill: rgb(238, 193, 187); transform-origin: 389.158px 231.11px 0px;" id="elktezyztkh2" class="animable"></path><path d="M402.1,218.41l-13.61,7.19-3.28,1.74s-.77-2.25-1.86-5.52c-.88-2.61-2-5.86-3.06-9.15-.34-1-.68-2.07-1-3.09-.1-.29-.2-.57-.29-.86-2.94-9,5.22-13.05,10.77-11.89C399.27,198.82,402.1,218.41,402.1,218.41Z" style="fill: rgb(22, 135, 167); transform-origin: 390.24px 211.988px 0px;" id="el2wyprrw78vp" class="animable"></path><g id="el67li6ic6gvk"><path d="M402.1,218.41l-13.61,7.19-3.28,1.74s-.77-2.25-1.86-5.52c-.88-2.61-2-5.86-3.06-9.15-.34-1-.68-2.07-1-3.09-.1-.29-.2-.57-.29-.86-2.94-9,5.22-13.05,10.77-11.89C399.27,198.82,402.1,218.41,402.1,218.41Z" style="fill: rgb(255, 255, 255); opacity: 0.7; isolation: isolate; transform-origin: 390.24px 211.988px 0px;" class="animable"></path></g><path d="M388.49,225.6l-3.28,1.74s-.77-2.25-1.86-5.52c-.88-2.61-2-5.86-3.06-9.15-.34-1-.68-2.07-1-3.09l7.5-1.47S387.81,220,388.49,225.6Z" style="fill: rgb(22, 135, 167); transform-origin: 383.89px 217.725px 0px;" id="el8e7njyz6pdd" class="animable"></path><g id="eluan2j400fz"><path d="M388.49,225.6l-3.28,1.74s-.77-2.25-1.86-5.52c-.88-2.61-2-5.86-3.06-9.15-.34-1-.68-2.07-1-3.09l7.5-1.47S387.81,220,388.49,225.6Z" style="fill: rgb(255, 255, 255); opacity: 0.6; isolation: isolate; transform-origin: 383.89px 217.725px 0px;" class="animable"></path></g><path d="M379.12,256.5l-7,2.33,6.35,6.81s5.53-3.31,4.11-6.44Z" style="fill: rgb(238, 193, 187); transform-origin: 377.467px 261.07px 0px;" id="ellattc87oyvb" class="animable"></path><polygon points="367.29 265.1 372.79 270.39 378.45 265.64 372.1 258.83 367.29 265.1" style="fill: rgb(238, 193, 187); transform-origin: 372.87px 264.61px 0px;" id="el513zni9id3u" class="animable"></polygon><polygon points="328.95 400.73 321.69 400.19 321.01 383.22 328.27 383.76 328.95 400.73" style="fill: rgb(238, 193, 187); transform-origin: 324.98px 391.975px 0px;" id="els0b0vx71sxh" class="animable"></polygon><polygon points="375.4 407.21 368.11 407.21 362.43 390.33 369.72 390.33 375.4 407.21" style="fill: rgb(238, 193, 187); transform-origin: 368.915px 398.77px 0px;" id="el7xciqzpjlrp" class="animable"></polygon><polygon points="321.01 383.23 321.36 391.98 328.63 392.52 328.28 383.77 321.01 383.23" style="fill: rgb(219, 151, 146); transform-origin: 324.82px 387.875px 0px;" id="elsm8txu143i" class="animable"></polygon><polygon points="369.72 390.34 362.43 390.34 365.36 399.04 372.65 399.04 369.72 390.34" style="fill: rgb(219, 151, 146); transform-origin: 367.54px 394.69px 0px;" id="eltn659wifxop" class="animable"></polygon><path d="M375.28,397.35H361.93s-13-44.72-16.27-67.87c-.7-5-.29-11.6.76-18.76,1.79-12.25,5.41-26.16,8.42-36.54,2.68-9.23,4.89-15.68,4.89-15.68l25.09,1.87c-1.36,18.21-19.38,48.11-18.13,72.82C367.84,356,375.28,397.35,375.28,397.35Z" style="fill: rgb(22, 135, 167); transform-origin: 365.066px 327.925px 0px;" id="el1kzwpt5c7xo" class="animable"></path><g id="elexrght119vt"><path d="M375.28,397.35H361.93s-13-44.72-16.27-67.87c-.7-5-.29-11.6.76-18.76,1.79-12.25,5.41-26.16,8.42-36.54,2.68-9.23,4.89-15.68,4.89-15.68l25.09,1.87c-1.36,18.21-19.38,48.11-18.13,72.82C367.84,356,375.28,397.35,375.28,397.35Z" style="opacity: 0.7; isolation: isolate; transform-origin: 365.066px 327.925px 0px;" class="animable"></path></g><path d="M378.93,176.22c-1.56,5.2-3.57,14.82-.21,18.72,0,0-2,5.24-11.84,4.26-10.84-1.08-4.64-5.89-4.64-5.89,6.05-.83,6.34-5.23,5.71-9.46Z" style="fill: rgb(238, 193, 187); transform-origin: 369.702px 187.771px 0px;" id="eleltxbv0snwl" class="animable"></path><path d="M360.45,168.35c-.06.58-.42,1-.8,1s-.64-.54-.59-1.13.42-1,.8-1S360.51,167.76,360.45,168.35Z" style="fill: rgb(38, 50, 56); transform-origin: 359.756px 168.285px 0px;" id="el2div7mqdalk" class="animable"></path><path d="M360.43,168.64a20.6,20.6,0,0,1-3.29,4.72,3.38,3.38,0,0,0,2.74.81Z" style="fill: rgb(212, 130, 125); transform-origin: 358.785px 171.424px 0px;" id="el7riy1vj45su" class="animable"></path><path d="M362.69,166.42a.34.34,0,0,1-.3-.17,2.74,2.74,0,0,0-2.08-1.36.36.36,0,0,1-.34-.36.31.31,0,0,1,.31-.33h.05a3.4,3.4,0,0,1,2.65,1.69.35.35,0,0,1-.11.48A.41.41,0,0,1,362.69,166.42Z" style="fill: rgb(38, 50, 56); transform-origin: 361.501px 165.31px 0px;" id="el50m7a0a5c7q" class="animable"></path><path d="M367.14,406.36H376a.63.63,0,0,1,.62.5l1.44,6.48a1.07,1.07,0,0,1-.83,1.27l-.24,0c-2.85-.05-4.94-.21-8.54-.21-2.21,0-6.78.23-9.84.23s-3.45-3-2.2-3.3c5.61-1.23,7.73-2.92,9.52-4.54A1.83,1.83,0,0,1,367.14,406.36Z" style="fill: rgb(38, 50, 56); transform-origin: 366.914px 410.495px 0px;" id="el7epgsofgf7c" class="animable"></path><path d="M321.34,398.56l7.94.59a.65.65,0,0,1,.58.55l.95,6.56a1.05,1.05,0,0,1-.88,1.21,1.13,1.13,0,0,1-.26,0c-2.86-.27-7-.74-10.58-1-4.21-.31-7-.46-11.94-.83-3-.22-3.58-3.3-2.32-3.48,5.78-.82,9.58-.5,14.72-3.16A3.38,3.38,0,0,1,321.34,398.56Z" style="fill: rgb(38, 50, 56); transform-origin: 317.514px 403.018px 0px;" id="el9jpiljp56vt" class="animable"></path><path d="M346.38,199.74c-.66,1.13-1.45,2.42-2.18,3.64s-1.53,2.46-2.32,3.67c-1.57,2.43-3.2,4.81-4.89,7.11s-3.45,4.52-5.3,6.59a45.33,45.33,0,0,1-5.18,5,28.51,28.51,0,0,1-4.69.68,27.39,27.39,0,0,1-6-.36,32.27,32.27,0,0,1-8.9-2.94c-.47-.24-.93-.5-1.38-.76l-1.26-.75-3.81,3.92c.54.62.95,1,1.44,1.52a18.55,18.55,0,0,0,1.47,1.3,31.24,31.24,0,0,0,3.15,2.33,32.26,32.26,0,0,0,7.16,3.42,32.59,32.59,0,0,0,7.94,1.57,34.15,34.15,0,0,0,8.14-.47l.83-.15.95-.62a48.15,48.15,0,0,0,7.74-6.43,79.18,79.18,0,0,0,6.36-7.21c2-2.48,3.78-5.05,5.51-7.66.86-1.33,1.69-2.67,2.5-4s1.58-2.66,2.38-4.16Z" style="fill: rgb(238, 193, 187); transform-origin: 328.255px 217.743px 0px;" id="eltrg8nto6me" class="animable"></path><path d="M307.59,224l-5.44-4.76L298,226.42s3.87,4.34,8.42,1.61Z" style="fill: rgb(238, 193, 187); transform-origin: 302.795px 224.086px 0px;" id="elhkkz1bqvz8b" class="animable"></path><polygon points="294.58 216.12 291.69 222.69 297.96 226.42 302.15 219.28 294.58 216.12" style="fill: rgb(238, 193, 187); transform-origin: 296.92px 221.27px 0px;" id="el8z5lvzy55u" class="animable"></polygon><path d="M380.36,168.3c-1.16,7.14-1.47,11.37-5.46,14.7-6,5-14.55.83-15.55-6.51-.9-6.6,1.14-17.17,8.45-19.33a9.87,9.87,0,0,1,12.56,11.14Z" style="fill: rgb(238, 193, 187); transform-origin: 369.828px 170.965px 0px;" id="elw2z9lmxq32" class="animable"></path><path d="M388.44,164.54c5.34,3.74-7.37,17.46-11.89,17.31s-13-12.68-10.22-19.35c-2.33-.94-3.08-1.25-4-3.63-1.72-4.31.35-11.5,10.91-9.48-2.62,1.78-.8,3.19,4.17,2.5-2,2.33,1.28,4.05,6.11,3.05C382.67,159.22,393.44,159.83,388.44,164.54Z" style="fill: rgb(38, 50, 56); transform-origin: 375.78px 165.445px 0px;" id="el97vevemhasl" class="animable"></path><path d="M370.31,170.51a6.92,6.92,0,0,1-2.86,4.4c-2,1.35-3.76-.25-3.84-2.54-.07-2.05.88-5.23,3.19-5.66a3.09,3.09,0,0,1,3.56,2.53A3.19,3.19,0,0,1,370.31,170.51Z" style="fill: rgb(238, 193, 187); transform-origin: 367.004px 171.036px 0px;" id="el89lxzclgtcc" class="animable"></path><g id="elnpjh40f4mrd"><path d="M361.48,279.44c-.14,12.12-8.66,25.51-15.06,31.28,1.79-12.25,5.41-26.16,8.42-36.54C356.71,273.8,359.92,277.35,361.48,279.44Z" style="opacity: 0.4; isolation: isolate; transform-origin: 353.95px 292.436px 0px;" class="animable"></path></g><path d="M364.73,407.64a2.17,2.17,0,0,1-1.4-.38,1,1,0,0,1-.36-.91.56.56,0,0,1,.29-.49c.82-.4,3.16,1,3.43,1.2a.18.18,0,0,1,.07.17.16.16,0,0,1-.13.14A7.64,7.64,0,0,1,364.73,407.64Zm-1.08-1.51a.45.45,0,0,0-.23,0,.23.23,0,0,0-.11.2.72.72,0,0,0,.24.63,3.49,3.49,0,0,0,2.58.13,7.15,7.15,0,0,0-2.48-1Z" style="fill: rgb(22, 135, 167); transform-origin: 364.861px 406.717px 0px;" id="el74dqkxgggvh" class="animable"></path><path d="M366.59,407.38h-.08c-.75-.41-2.21-2-2.06-2.82a.56.56,0,0,1,.55-.45.9.9,0,0,1,.74.22c.84.69,1,2.79,1,2.88a.21.21,0,0,1-.08.16Zm-1.47-3h-.07c-.23,0-.25.13-.26.17-.09.48.84,1.69,1.59,2.26a4.2,4.2,0,0,0-.86-2.28.57.57,0,0,0-.4-.11Z" style="fill: rgb(22, 135, 167); transform-origin: 365.59px 405.74px 0px;" id="elr2uodgvo20p" class="animable"></path><path d="M318.85,399.63a3.48,3.48,0,0,1-2.36-.6,1,1,0,0,1-.26-.86.54.54,0,0,1,.32-.44c.92-.42,3.73,1.27,4.05,1.47a.18.18,0,0,1,.08.18.19.19,0,0,1-.15.14A13.54,13.54,0,0,1,318.85,399.63ZM316.93,398a.59.59,0,0,0-.23.05.21.21,0,0,0-.13.17.63.63,0,0,0,.17.57c.42.43,1.61.59,3.23.44A8.66,8.66,0,0,0,316.93,398Z" style="fill: rgb(22, 135, 167); transform-origin: 318.449px 398.657px 0px;" id="elfutthice05t" class="animable"></path><path d="M320.51,399.52h-.09c-.84-.46-2.46-2.16-2.27-3,.05-.19.2-.42.68-.44a1.33,1.33,0,0,1,.93.37,5,5,0,0,1,.92,2.88.18.18,0,0,1-.08.15Zm-1.64-3.08h0c-.32,0-.34.13-.35.17-.12.48,1,1.81,1.82,2.41a4,4,0,0,0-.79-2.31A.92.92,0,0,0,318.87,396.44Z" style="fill: rgb(22, 135, 167); transform-origin: 319.407px 397.8px 0px;" id="elnd0vzi7ipe" class="animable"></path><path d="M346,257.48s-31.48,47.62-32.34,69.84c-.89,23.11,5.15,62.77,5.15,62.77l12.31.92s1.43-37.72,3.66-60.32c2.43-24.63,38-52.08,39.4-71.11Z" style="fill: rgb(22, 135, 167); transform-origin: 343.875px 324.245px 0px;" id="elp1ggypz9ck" class="animable"></path><g id="el8ix5d442r5w"><path d="M346,257.48s-31.48,47.62-32.34,69.84c-.89,23.11,5.15,62.77,5.15,62.77l12.31.92s1.43-37.72,3.66-60.32c2.43-24.63,38-52.08,39.4-71.11Z" style="opacity: 0.7; isolation: isolate; transform-origin: 343.875px 324.245px 0px;" class="animable"></path></g><polygon points="359.57 397.64 377.02 397.64 377.02 392.94 357.52 392.64 359.57 397.64" style="fill: rgb(22, 135, 167); transform-origin: 367.27px 395.14px 0px;" id="eloezjyoihwtl" class="animable"></polygon><polygon points="316.29 390.16 333.38 391.47 333.74 386.73 314.61 385.02 316.29 390.16" style="fill: rgb(22, 135, 167); transform-origin: 324.175px 388.245px 0px;" id="el2my0sjdy65" class="animable"></polygon><path d="M359.57,203.09c-.52,6.94-8.74,20.47-8.74,20.47l-18.61-9.78s6.3-10.13,13.19-16.16S360.14,195.46,359.57,203.09Z" style="fill: rgb(22, 135, 167); transform-origin: 345.91px 209.111px 0px;" id="eltgms07howzs" class="animable"></path><g id="elupwfj1fp3qo"><path d="M359.57,203.09c-.52,6.94-8.74,20.47-8.74,20.47l-18.61-9.78s6.3-10.13,13.19-16.16S360.14,195.46,359.57,203.09Z" style="fill: rgb(255, 255, 255); opacity: 0.7; isolation: isolate; transform-origin: 345.91px 209.111px 0px;" class="animable"></path></g><path d="M360.13,195.14c.5-1-.22-4.56-.22-4.56s15.47-2.08,21-.11c3,1.06.36,6.41.36,6.41Z" style="fill: rgb(22, 135, 167); transform-origin: 371.127px 193.251px 0px;" id="ela36jhaldggj" class="animable"></path><g id="elgylomiieizo"><path d="M360.13,195.14c.5-1-.22-4.56-.22-4.56s15.47-2.08,21-.11c3,1.06.36,6.41.36,6.41Z" style="opacity: 0.7; isolation: isolate; transform-origin: 371.127px 193.251px 0px;" class="animable"></path></g><path d="M384.81,260.37,346,257.48A176,176,0,0,1,344.67,228c.16-3.54.44-6.8.78-9.78,1.8-15.59,5.6-23.51,5.6-23.51a72.93,72.93,0,0,1,11.32-1.19,142.62,142.62,0,0,1,16.52,1.23,89,89,0,0,1,11.77,2.32C382.81,224.75,385.52,254.42,384.81,260.37Z" style="fill: rgb(22, 135, 167); transform-origin: 367.599px 226.945px 0px;" id="el83ecc5fjzpc" class="animable"></path><g id="el6355zo83msf"><path d="M384.81,260.37,346,257.48A176,176,0,0,1,344.67,228c.16-3.54.44-6.8.78-9.78,1.8-15.59,5.6-23.51,5.6-23.51a72.93,72.93,0,0,1,11.32-1.19,142.62,142.62,0,0,1,16.52,1.23,89,89,0,0,1,11.77,2.32C382.81,224.75,385.52,254.42,384.81,260.37Z" style="fill: rgb(255, 255, 255); opacity: 0.7; isolation: isolate; transform-origin: 367.599px 226.945px 0px;" class="animable"></path></g></g></g><defs>     <filter id="active" height="200%">         <feMorphology in="SourceAlpha" result="DILATED" operator="dilate" radius="2"></feMorphology>                <feFlood flood-color="#32DFEC" flood-opacity="1" result="PINK"></feFlood>        <feComposite in="PINK" in2="DILATED" operator="in" result="OUTLINE"></feComposite>        <feMerge>            <feMergeNode in="OUTLINE"></feMergeNode>            <feMergeNode in="SourceGraphic"></feMergeNode>        </feMerge>    </filter>    <filter id="hover" height="200%">        <feMorphology in="SourceAlpha" result="DILATED" operator="dilate" radius="2"></feMorphology>                <feFlood flood-color="#ff0000" flood-opacity="0.5" result="PINK"></feFlood>        <feComposite in="PINK" in2="DILATED" operator="in" result="OUTLINE"></feComposite>        <feMerge>            <feMergeNode in="OUTLINE"></feMergeNode>            <feMergeNode in="SourceGraphic"></feMergeNode>        </feMerge>            <feColorMatrix type="matrix" values="0   0   0   0   0                0   1   0   0   0                0   0   0   0   0                0   0   0   1   0 "></feColorMatrix>    </filter></defs></svg>
