<svg width="156" height="156" viewBox="0 0 156 156" fill="none" xmlns="http://www.w3.org/2000/svg">
<path d="M147.333 78.0001C147.333 116.292 116.292 147.333 78.0001 147.333C39.7083 147.333 8.66675 116.292 8.66675 78.0001C8.66675 39.7083 39.7083 8.66675 78.0001 8.66675C116.292 8.66675 147.333 39.7083 147.333 78.0001ZM21.6432 78.0001C21.6432 109.125 46.8751 134.357 78.0001 134.357C109.125 134.357 134.357 109.125 134.357 78.0001C134.357 46.8751 109.125 21.6432 78.0001 21.6432C46.8751 21.6432 21.6432 46.8751 21.6432 78.0001Z" fill="#276678"/>
<path d="M130 78C130 106.719 106.719 130 78 130C49.2812 130 26 106.719 26 78C26 49.2812 49.2812 26 78 26C106.719 26 130 49.2812 130 78ZM36.4 78C36.4 100.975 55.025 119.6 78 119.6C100.975 119.6 119.6 100.975 119.6 78C119.6 55.025 100.975 36.4 78 36.4C55.025 36.4 36.4 55.025 36.4 78Z" fill="#276678"/>
<path d="M114.4 77.6149C114.4 97.5053 97.9092 113.63 77.5667 113.63C57.2242 113.63 40.7334 97.5053 40.7334 77.6149C40.7334 57.7245 57.2242 41.6001 77.5667 41.6001C97.9092 41.6001 114.4 57.7245 114.4 77.6149ZM47.2077 77.6149C47.2077 94.0091 60.7999 107.299 77.5667 107.299C94.3335 107.299 107.926 94.0091 107.926 77.6149C107.926 61.2207 94.3335 47.9306 77.5667 47.9306C60.7999 47.9306 47.2077 61.2207 47.2077 77.6149Z" fill="#276678"/>
<path d="M90.1333 78C90.1333 85.1797 84.313 91 77.1333 91C69.9536 91 64.1333 85.1797 64.1333 78C64.1333 70.8203 69.9536 65 77.1333 65C84.313 65 90.1333 70.8203 90.1333 78ZM72.5134 78C72.5134 80.5515 74.5818 82.6199 77.1333 82.6199C79.6848 82.6199 81.7532 80.5515 81.7532 78C81.7532 75.4485 79.6848 73.3801 77.1333 73.3801C74.5818 73.3801 72.5134 75.4485 72.5134 78Z" fill="#276678"/>
<path d="M68.4666 91H85.7999V147.333H68.4666V91Z" fill="#F6F5F5"/>
<path d="M77.1333 104C71.1244 104 65.301 101.919 60.6533 98.11C56.0057 94.3013 52.8208 89.0003 51.6401 83.1086C50.4595 77.2168 51.356 71.098 54.1773 65.7926C56.9986 60.4872 61.5704 56.3228 67.1153 54.0075C72.6603 51.6922 78.836 51.369 84.5923 53.0929C90.3486 54.8168 95.3302 58.4813 98.6898 63.4632C102.049 68.4452 103.58 74.437 103.02 80.4198C102.461 86.4026 99.8469 92.007 95.6222 96.28L91.3051 92.0117C94.5433 88.7364 96.5471 84.4406 96.9758 79.8548C97.4045 75.269 96.2315 70.6762 93.6563 66.8575C91.0812 63.0389 87.2629 60.2301 82.8506 58.9087C78.4384 57.5874 73.7047 57.8351 69.4545 59.6097C65.2043 61.3844 61.7 64.5764 59.5375 68.643C57.375 72.7096 56.6878 77.3997 57.5928 81.9157C58.4977 86.4317 60.939 90.4949 64.5014 93.4143C68.0638 96.3337 72.5275 97.929 77.1333 97.929L77.1333 104Z" fill="#276678"/>
<path d="M77.1333 104C70.7443 104 64.579 101.648 59.8139 97.3917C55.0488 93.1358 52.0175 87.2744 51.2985 80.926C50.5795 74.5776 52.2231 68.1867 55.9157 62.9729C59.6083 57.7591 65.0914 54.0874 71.3185 52.6586C77.5457 51.2297 84.0809 52.1437 89.6772 55.2261C95.2734 58.3085 99.5388 63.3435 101.659 69.3703C103.78 75.3971 103.607 81.9937 101.174 87.9012C98.7412 93.8088 94.2182 98.6137 88.4683 101.399L85.8216 95.9354C90.2289 93.8004 93.6957 90.1175 95.5607 85.5893C97.4256 81.0611 97.558 76.0048 95.9325 71.3853C94.3071 66.7658 91.0377 62.9064 86.7482 60.5438C82.4586 58.1811 77.4494 57.4806 72.6763 58.5758C67.9032 59.671 63.7004 62.4854 60.87 66.4817C58.0396 70.4781 56.7798 75.3767 57.3309 80.2428C57.882 85.1088 60.2055 89.6016 63.858 92.8637C67.5104 96.1259 72.2361 97.929 77.1333 97.929L77.1333 104Z" fill="#276678"/>
<rect x="85.8" y="96.2" width="4.33333" height="45.9333" fill="#276678"/>
<rect x="73.6667" y="97.9333" width="4.33333" height="49.4" fill="#276678"/>
</svg>
